<?xml version="1.0" encoding="utf-8"?>
<!-- Generator: Adobe Illustrator 18.0.0, SVG Export Plug-In . SVG Version: 6.00 Build 0)  -->
<!DOCTYPE svg PUBLIC "-//W3C//DTD SVG 1.1//EN" "http://www.w3.org/Graphics/SVG/1.1/DTD/svg11.dtd">
<svg version="1.1" id="svg2985" xmlns:inkscape="http://www.inkscape.org/namespaces/inkscape" xmlns:cc="http://creativecommons.org/ns#" xmlns:svg="http://www.w3.org/2000/svg" xmlns:dc="http://purl.org/dc/elements/1.1/" xmlns:sodipodi="http://sodipodi.sourceforge.net/DTD/sodipodi-0.dtd" xmlns:rdf="http://www.w3.org/1999/02/22-rdf-syntax-ns#" sodipodi:docname="info.svg" inkscape:version="0.47pre4 r22446" xmlns="http://www.w3.org/2000/svg" xmlns:xlink="http://www.w3.org/1999/xlink" x="0px" y="0px" viewBox="81 171 450 450" enable-background="new 81 171 450 450" xml:space="preserve">
<defs>
	
	
		<inkscape:perspective sodipodi:type="inkscape:persp3d" inkscape:vp_y="0 : 1000 : 0" inkscape:vp_z="744.09448 : 526.18109 : 1" inkscape:vp_x="0 : 526.18109 : 1" id="perspective2993" inkscape:persp3d-origin="372.04724 : 350.78739 : 1">
		</inkscape:perspective>
	
		<inkscape:perspective sodipodi:type="inkscape:persp3d" inkscape:vp_y="0 : 1000 : 0" inkscape:vp_z="1 : 0.5 : 1" inkscape:vp_x="0 : 0.5 : 1" id="perspective2935" inkscape:persp3d-origin="0.5 : 0.33333333 : 1">
		</inkscape:perspective>
	
		<inkscape:perspective sodipodi:type="inkscape:persp3d" inkscape:vp_y="0 : 1000 : 0" inkscape:vp_z="1 : 0.5 : 1" inkscape:vp_x="0 : 0.5 : 1" id="perspective3113" inkscape:persp3d-origin="0.5 : 0.33333333 : 1">
		</inkscape:perspective>
</defs>
<sodipodi:namedview bordercolor="#666666" borderopacity="1.0" inkscape:zoom="0.76400611" pagecolor="#ffffff" inkscape:cy="359.43231" showgrid="false" inkscape:cx="112.11753" id="base" inkscape:window-height="976" inkscape:document-units="px" inkscape:window-width="1680" inkscape:window-y="25" inkscape:pageopacity="0.0" inkscape:pageshadow="2" inkscape:window-maximized="1" inkscape:window-x="0" inkscape:current-layer="g7925">
	</sodipodi:namedview>
<g>
	<path fill="#FFFFFF" d="M378.7,441.9c1,1,1.5,2.3,1.5,3.6s-0.5,2.6-1.5,3.4l-13.7,13.7c-1,1.2-2.1,1.5-3.4,1.5
		c-1.3,0-2.6-0.5-3.6-1.5l-47.5-47.5l-47.5,47.7c-1,1-2.3,1.5-3.4,1.5c-1.3,0-2.6-0.5-3.6-1.5l-13.7-13.7c-0.8-1-1.5-2.3-1.5-3.6
		s0.7-2.6,1.5-3.6l47.7-47.8l-47.7-47.2c-2-2-2-5,0-7l13.5-13.7c1-1,2.3-1.5,3.6-1.5s2.6,0.5,3.4,1.5l47.7,47l47.7-47
		c1-1,2.3-1.5,3.6-1.5s2.6,0.5,3.6,1.5l13.5,13.7c2,2,2,5,0,7l-47.7,47.2L378.7,441.9z"></path>
	<path fill="#FFFFFF" d="M378.7,441.9c1,1,1.5,2.3,1.5,3.6s-0.5,2.6-1.5,3.4l-13.7,13.7c-1,1.2-2.1,1.5-3.4,1.5
		c-1.3,0-2.6-0.5-3.6-1.5l-47.5-47.5l-47.5,47.7c-1,1-2.3,1.5-3.4,1.5c-1.3,0-2.6-0.5-3.6-1.5l-13.7-13.7c-0.8-1-1.5-2.3-1.5-3.6
		s0.7-2.6,1.5-3.6l47.7-47.8l-47.7-47.2c-2-2-2-5,0-7l13.5-13.7c1-1,2.3-1.5,3.6-1.5s2.6,0.5,3.4,1.5l47.7,47l47.7-47
		c1-1,2.3-1.5,3.6-1.5s2.6,0.5,3.6,1.5l13.5,13.7c2,2,2,5,0,7l-47.7,47.2L378.7,441.9z"></path>
</g>
</svg>
